<svg width="48" height="48" viewBox="0 0 48 48" fill="none" xmlns="http://www.w3.org/2000/svg">
<path d="M41.04 20.52C41.04 9.18711 31.8529 0 20.52 0C9.18711 0 0 9.18711 0 20.52C0 31.8529 9.18711 41.04 20.52 41.04C20.8112 41.04 21.1011 41.0338 21.3893 41.0219C21.0079 39.9384 20.7443 38.7992 20.6139 37.6197L20.52 37.62C11.0759 37.62 3.42 29.9641 3.42 20.52C3.42 11.0759 11.0759 3.42 20.52 3.42C29.9641 3.42 37.62 11.0759 37.62 20.52L37.6197 20.6139C38.7992 20.7443 39.9384 21.0079 41.0219 21.3893C41.0338 21.1011 41.04 20.8112 41.04 20.52V20.52Z" fill="#212121"/>
<path d="M20.9027 32.4838C21.1889 31.2253 21.6293 30.0251 22.2032 28.9046C21.659 29.0131 21.0962 29.07 20.52 29.07C17.9879 29.07 15.7147 27.9715 14.1467 26.2196C13.5168 25.5159 12.4358 25.456 11.7321 26.0858C11.0284 26.7157 10.9685 27.7967 11.5983 28.5004C13.7877 30.9465 16.9747 32.49 20.52 32.49C20.648 32.49 20.7756 32.4879 20.9027 32.4838Z" fill="#212121"/>
<path d="M17.1 17.1C17.1 18.5166 15.9516 19.665 14.535 19.665C13.1184 19.665 11.97 18.5166 11.97 17.1C11.97 15.6834 13.1184 14.535 14.535 14.535C15.9516 14.535 17.1 15.6834 17.1 17.1Z" fill="#212121"/>
<path d="M26.505 19.665C27.9216 19.665 29.07 18.5166 29.07 17.1C29.07 15.6834 27.9216 14.535 26.505 14.535C25.0884 14.535 23.94 15.6834 23.94 17.1C23.94 18.5166 25.0884 19.665 26.505 19.665Z" fill="#212121"/>
<path d="M47.88 35.91C47.88 42.5209 42.5209 47.88 35.91 47.88C29.2991 47.88 23.94 42.5209 23.94 35.91C23.94 29.2991 29.2991 23.94 35.91 23.94C42.5209 23.94 47.88 29.2991 47.88 35.91ZM37.62 29.07C37.62 28.1256 36.8543 27.36 35.91 27.36C34.9657 27.36 34.2 28.1256 34.2 29.07V34.2H29.07C28.1256 34.2 27.36 34.9657 27.36 35.91C27.36 36.8543 28.1256 37.62 29.07 37.62H34.2V42.75C34.2 43.6943 34.9657 44.46 35.91 44.46C36.8543 44.46 37.62 43.6943 37.62 42.75V37.62H42.75C43.6943 37.62 44.46 36.8543 44.46 35.91C44.46 34.9657 43.6943 34.2 42.75 34.2H37.62V29.07Z" fill="#212121"/>
</svg>
