<svg width="48" height="48" viewBox="0 0 48 48" fill="none" xmlns="http://www.w3.org/2000/svg">
<path d="M40.47 6.84C44.5624 6.84 47.88 10.1576 47.88 14.25V40.47C47.88 44.5624 44.5624 47.88 40.47 47.88H14.25C10.1576 47.88 6.84 44.5624 6.84 40.47V26.2243C7.9213 26.6751 9.06727 27.0015 10.2602 27.1857L10.26 40.47C10.26 40.9452 10.3431 41.4009 10.4954 41.8235L23.7708 28.826C25.6702 26.9662 28.6538 26.8778 30.6564 28.5606L30.9491 28.8263L44.2237 41.8258C44.3766 41.4026 44.46 40.946 44.46 40.47V14.25C44.46 12.0464 42.6736 10.26 40.47 10.26L27.1857 10.2602C27.0015 9.06727 26.6751 7.9213 26.2243 6.84H40.47ZM26.3541 31.1083L26.1635 31.2697L12.9241 44.2344C13.3389 44.3805 13.7852 44.46 14.25 44.46H40.47C40.934 44.46 41.3794 44.3808 41.7936 44.2352L28.5562 31.2698C27.9519 30.678 27.0183 30.6241 26.3541 31.1083V31.1083ZM34.7748 14.82C37.6107 14.82 39.9096 17.1189 39.9096 19.9548C39.9096 22.7907 37.6107 25.0896 34.7748 25.0896C31.9389 25.0896 29.64 22.7907 29.64 19.9548C29.64 17.1189 31.9389 14.82 34.7748 14.82V14.82ZM12.54 0C19.4657 0 25.08 5.61435 25.08 12.54C25.08 19.4657 19.4657 25.08 12.54 25.08C5.61435 25.08 0 19.4657 0 12.54C0 5.61435 5.61435 0 12.54 0V0ZM34.7748 18.24C33.8278 18.24 33.06 19.0078 33.06 19.9548C33.06 20.9019 33.8278 21.6696 34.7748 21.6696C35.7219 21.6696 36.4896 20.9019 36.4896 19.9548C36.4896 19.0078 35.7219 18.24 34.7748 18.24ZM12.54 4.55826L12.3351 4.57662C11.8698 4.66108 11.5028 5.02801 11.4184 5.49334L11.4 5.69826L11.3992 11.3983L5.69464 11.4L5.48973 11.4184C5.02439 11.5028 4.65747 11.8698 4.57301 12.3351L4.55464 12.54L4.57301 12.7449C4.65747 13.2102 5.02439 13.5772 5.48973 13.6616L5.69464 13.68L11.4015 13.6783L11.4025 19.3879L11.4209 19.5929C11.5054 20.0582 11.8723 20.4251 12.3376 20.5096L12.5425 20.5279L12.7474 20.5096C13.2128 20.4251 13.5797 20.0582 13.6642 19.5929L13.6825 19.3879L13.6815 13.6783L19.3904 13.68L19.5953 13.6616C20.0607 13.5772 20.4276 13.2102 20.512 12.7449L20.5304 12.54L20.512 12.3351C20.4276 11.8698 20.0607 11.5028 19.5953 11.4184L19.3904 11.4L13.6792 11.3983L13.68 5.69826L13.6616 5.49334C13.5772 5.02801 13.2102 4.66108 12.7449 4.57662L12.54 4.55826Z" fill="#212121"/>
</svg>
