<svg width="576" height="512" viewBox="0 0 576 512" fill="none" xmlns="http://www.w3.org/2000/svg">
<path d="M568.5 142.6L424.5 7.49999C414.875 -1.65601 399.69 -1.15601 390.59 8.46899C381.465 18.094 381.902 33.279 391.559 42.379L491.659 136.939H328.259C287.5 134.2 249.7 151 221 179.4C192 208.2 176 246.7 176 288V375.1C176 388.35 186.75 398.2 200 398.2C213.25 398.2 224 389.3 224 376V288C224 259.63 234.94 233.16 254.78 213.5C274.3 194.2 298.9 183 328 184H491.6L391.5 278.56C381.844 287.654 381.41 302.84 390.531 312.47C395.251 316.57 401.591 320.001 407.971 320.001C413.877 320.001 419.811 317.845 424.441 313.439L568.441 178.339C573.3 172.9 576 166.6 576 160C576 153.4 573.3 147.1 568.5 142.6ZM360 384C346.75 384 336 394.75 336 407.1V454.2C336 458.606 332.406 461.3 328 461.3H56C51.594 461.3 48 457.706 48 454.2V184C48 179.594 51.594 176.9 56 176.9H112C125.25 176.9 136 166.15 136 153.8C136 141.45 125.25 130.7 112 130.7H56C25.12 130.7 0 155.82 0 185.8V456.9C0 486.9 25.13 512 56 512H328C358.88 512 384 486.88 384 456.9V409.8C384 394.8 373.3 384 360 384V384Z" fill="black"/>
</svg>
